<svg xmlns="http://www.w3.org/2000/svg" xmlns:xlink="http://www.w3.org/1999/xlink" width="500" zoomAndPan="magnify" viewBox="0 0 375 374.999991" height="500" preserveAspectRatio="xMidYMid meet" version="1.0"><defs><g/></defs><path fill="#000000" d="M 240.632812 206.976562 C 241.003906 206.976562 241.363281 206.90625 241.707031 206.761719 C 242.054688 206.621094 242.359375 206.414062 242.621094 206.152344 C 242.886719 205.886719 243.089844 205.585938 243.230469 205.238281 C 243.375 204.894531 243.445312 204.535156 243.445312 204.164062 C 243.445312 203.789062 243.375 203.433594 243.230469 203.085938 C 243.089844 202.742188 242.886719 202.4375 242.621094 202.175781 C 242.359375 201.910156 242.054688 201.707031 241.707031 201.566406 C 241.363281 201.421875 241.003906 201.351562 240.632812 201.351562 C 240.257812 201.351562 239.902344 201.421875 239.554688 201.566406 C 239.210938 201.707031 238.90625 201.910156 238.644531 202.175781 C 238.378906 202.4375 238.175781 202.742188 238.035156 203.085938 C 237.890625 203.433594 237.820312 203.789062 237.820312 204.164062 C 237.820312 204.535156 237.890625 204.894531 238.035156 205.238281 C 238.175781 205.585938 238.378906 205.886719 238.644531 206.152344 C 238.90625 206.414062 239.210938 206.621094 239.554688 206.761719 C 239.902344 206.90625 240.257812 206.976562 240.632812 206.976562 Z M 240.632812 206.976562 " fill-opacity="1" fill-rule="nonzero"/><g fill="#ffffff" fill-opacity="1"><g transform="translate(115.968908, 177.713456)"><g><path d="M 15.8125 -16.65625 L 6.109375 -16.65625 L 6.109375 -11.90625 L 14.5 -11.90625 L 14.5 -8.515625 L 6.109375 -8.515625 L 6.109375 0 L 2.078125 0 L 2.078125 -20.046875 L 15.8125 -20.046875 Z M 15.8125 -16.65625 "/></g></g></g><g fill="#ffffff" fill-opacity="1"><g transform="translate(133.074574, 177.713456)"><g><path d="M 20.125 0 L 15.703125 0 L 13.96875 -4.53125 L 5.96875 -4.53125 L 4.3125 0 L 0 0 L 7.8125 -20.046875 L 12.09375 -20.046875 Z M 7.203125 -7.921875 L 12.6875 -7.921875 L 9.90625 -15.375 Z M 7.203125 -7.921875 "/></g></g></g><g fill="#ffffff" fill-opacity="1"><g transform="translate(153.287814, 177.713456)"><g><path d="M 7.28125 -6.265625 L 10.921875 -20.046875 L 15.734375 -20.046875 L 19.296875 -6.046875 L 22.3125 -20.046875 L 26.40625 -20.046875 L 21.53125 0 L 17.21875 0 L 13.21875 -14.984375 L 9.265625 0 L 4.875 0 L 0.078125 -20.046875 L 4.234375 -20.046875 Z M 7.28125 -6.265625 "/></g></g></g><g fill="#ffffff" fill-opacity="1"><g transform="translate(179.716214, 177.713456)"><g><path d="M 20.125 0 L 15.703125 0 L 13.96875 -4.53125 L 5.96875 -4.53125 L 4.3125 0 L 0 0 L 7.8125 -20.046875 L 12.09375 -20.046875 Z M 7.203125 -7.921875 L 12.6875 -7.921875 L 9.90625 -15.375 Z M 7.203125 -7.921875 "/></g></g></g><g fill="#ffffff" fill-opacity="1"><g transform="translate(199.929455, 177.713456)"><g><path d="M 16.15625 -16.890625 L 5.1875 -3.390625 L 16.578125 -3.390625 L 16.578125 0 L 0.3125 0 L 0.3125 -3.640625 L 10.84375 -16.65625 L 1.484375 -16.65625 L 1.484375 -20.046875 L 16.15625 -20.046875 Z M 16.15625 -16.890625 "/></g></g></g><g fill="#ffffff" fill-opacity="1"><g transform="translate(115.028318, 207.786505)"><g><path d="M 10.890625 -20.390625 C 13.003906 -20.390625 14.785156 -19.941406 16.234375 -19.046875 C 17.691406 -18.148438 18.785156 -16.914062 19.515625 -15.34375 C 20.242188 -13.769531 20.609375 -11.988281 20.609375 -10 C 20.609375 -7.863281 20.21875 -6.019531 19.4375 -4.46875 C 18.664062 -2.925781 17.550781 -1.738281 16.09375 -0.90625 C 14.644531 -0.0703125 12.929688 0.34375 10.953125 0.34375 C 8.878906 0.34375 7.109375 -0.0820312 5.640625 -0.9375 C 4.171875 -1.800781 3.0625 -3.003906 2.3125 -4.546875 C 1.570312 -6.085938 1.203125 -7.875 1.203125 -9.90625 C 1.203125 -12.019531 1.570312 -13.863281 2.3125 -15.4375 C 3.0625 -17.019531 4.160156 -18.238281 5.609375 -19.09375 C 7.054688 -19.957031 8.816406 -20.390625 10.890625 -20.390625 Z M 5.375 -10.03125 C 5.375 -8.457031 5.625 -7.15625 6.125 -6.125 C 6.632812 -5.101562 7.304688 -4.347656 8.140625 -3.859375 C 8.984375 -3.378906 9.910156 -3.140625 10.921875 -3.140625 C 11.847656 -3.140625 12.722656 -3.351562 13.546875 -3.78125 C 14.367188 -4.207031 15.054688 -4.9375 15.609375 -5.96875 C 16.160156 -7.007812 16.4375 -8.378906 16.4375 -10.078125 C 16.4375 -12.078125 15.992188 -13.710938 15.109375 -14.984375 C 14.234375 -16.265625 12.828125 -16.90625 10.890625 -16.90625 C 8.972656 -16.90625 7.570312 -16.257812 6.6875 -14.96875 C 5.8125 -13.6875 5.375 -12.039062 5.375 -10.03125 Z M 5.375 -10.03125 "/></g></g></g><g fill="#ffffff" fill-opacity="1"><g transform="translate(136.809342, 207.786505)"><g><path d="M 9.40625 -12.125 L 14.0625 -20.046875 L 18.703125 -20.046875 L 11.34375 -8.40625 L 11.34375 0 L 7.3125 0 L 7.3125 -8.421875 L -0.03125 -20.046875 L 4.703125 -20.046875 Z M 9.40625 -12.125 "/></g></g></g><g fill="#ffffff" fill-opacity="1"><g transform="translate(155.482791, 207.786505)"><g><path d="M 16.90625 -16.65625 L 6.078125 -16.65625 L 6.078125 -12.203125 L 16.15625 -12.203125 L 16.15625 -8.8125 L 6.078125 -8.8125 L 6.078125 -3.390625 L 17.28125 -3.390625 L 17.28125 0 L 2.046875 0 L 2.046875 -20.046875 L 16.90625 -20.046875 Z M 16.90625 -16.65625 "/></g></g></g><g fill="#ffffff" fill-opacity="1"><g transform="translate(174.15624, 207.786505)"><g><path d="M 15.875 -18.171875 C 17.832031 -16.421875 18.8125 -13.617188 18.8125 -9.765625 C 18.8125 -6.535156 17.945312 -4.007812 16.21875 -2.1875 C 14.851562 -0.726562 12.75 0 9.90625 0 L 2.015625 0 L 2.015625 -20.046875 L 9.828125 -20.046875 C 11.242188 -20.046875 12.414062 -19.898438 13.34375 -19.609375 C 14.28125 -19.328125 15.125 -18.847656 15.875 -18.171875 Z M 14.640625 -10 C 14.640625 -11.914062 14.410156 -13.351562 13.953125 -14.3125 C 13.492188 -15.28125 12.835938 -15.910156 11.984375 -16.203125 C 11.128906 -16.503906 9.953125 -16.65625 8.453125 -16.65625 L 6.046875 -16.65625 L 6.046875 -3.390625 L 9.40625 -3.390625 C 10.65625 -3.390625 11.648438 -3.550781 12.390625 -3.875 C 13.128906 -4.207031 13.6875 -4.847656 14.0625 -5.796875 C 14.445312 -6.742188 14.640625 -8.144531 14.640625 -10 Z M 14.640625 -10 "/></g></g></g><g fill="#ffffff" fill-opacity="1"><g transform="translate(194.369481, 207.786505)"><g><path d="M 16.90625 -16.65625 L 6.078125 -16.65625 L 6.078125 -12.203125 L 16.15625 -12.203125 L 16.15625 -8.8125 L 6.078125 -8.8125 L 6.078125 -3.390625 L 17.28125 -3.390625 L 17.28125 0 L 2.046875 0 L 2.046875 -20.046875 L 16.90625 -20.046875 Z M 16.90625 -16.65625 "/></g></g></g><g fill="#ffffff" fill-opacity="1"><g transform="translate(213.04293, 207.786505)"><g><path d="M 13.328125 -20.046875 L 13.328125 -6.6875 C 13.328125 -4.582031 12.8125 -2.882812 11.78125 -1.59375 C 10.757812 -0.300781 9.0625 0.34375 6.6875 0.34375 C 2.65625 0.34375 0.582031 -1.84375 0.46875 -6.21875 L 4.3125 -6.71875 L 4.3125 -6.546875 C 4.363281 -5.523438 4.550781 -4.703125 4.875 -4.078125 C 5.207031 -3.453125 5.859375 -3.140625 6.828125 -3.140625 C 7.835938 -3.140625 8.5 -3.4375 8.8125 -4.03125 C 9.132812 -4.625 9.296875 -5.507812 9.296875 -6.6875 L 9.296875 -20.046875 Z M 13.328125 -20.046875 "/></g></g></g><g fill="#ffffff" fill-opacity="1"><g transform="translate(228.608805, 207.786505)"><g><path d="M 5.9375 0 L 1.90625 0 L 1.90625 -20.046875 L 5.9375 -20.046875 Z M 5.9375 0 "/></g></g></g></svg>